<?xml version="1.0" encoding="UTF-8"?>
<!DOCTYPE svg
  PUBLIC '-//W3C//DTD SVG 1.1//EN'
  'http://www.w3.org/Graphics/SVG/1.1/DTD/svg11.dtd'>
<svg version="1.1" xmlns="http://www.w3.org/2000/svg" width="44.000mm" height="23.000mm">
    <!--Autogenerated with python-barcode 0.13.1-->
    <g id="barcode_group">
        <rect width="100%" height="100%" style="fill:white"/>
        <rect x="6.500mm" y="1.000mm" width="0.330mm" height="15.000mm" style="fill:black;"/>
        <rect x="6.830mm" y="1.000mm" width="0.330mm" height="15.000mm" style="fill:white;"/>
        <rect x="7.160mm" y="1.000mm" width="0.330mm" height="15.000mm" style="fill:black;"/>
        <rect x="7.490mm" y="1.000mm" width="0.330mm" height="15.000mm" style="fill:white;"/>
        <rect x="7.820mm" y="1.000mm" width="0.660mm" height="15.000mm" style="fill:black;"/>
        <rect x="8.480mm" y="1.000mm" width="0.330mm" height="15.000mm" style="fill:white;"/>
        <rect x="8.810mm" y="1.000mm" width="0.990mm" height="15.000mm" style="fill:black;"/>
        <rect x="9.800mm" y="1.000mm" width="0.330mm" height="15.000mm" style="fill:white;"/>
        <rect x="10.130mm" y="1.000mm" width="0.330mm" height="15.000mm" style="fill:black;"/>
        <rect x="10.460mm" y="1.000mm" width="0.660mm" height="15.000mm" style="fill:white;"/>
        <rect x="11.120mm" y="1.000mm" width="0.990mm" height="15.000mm" style="fill:black;"/>
        <rect x="12.110mm" y="1.000mm" width="0.660mm" height="15.000mm" style="fill:white;"/>
        <rect x="12.770mm" y="1.000mm" width="0.660mm" height="15.000mm" style="fill:black;"/>
        <rect x="13.430mm" y="1.000mm" width="0.660mm" height="15.000mm" style="fill:white;"/>
        <rect x="14.090mm" y="1.000mm" width="0.330mm" height="15.000mm" style="fill:black;"/>
        <rect x="14.420mm" y="1.000mm" width="1.320mm" height="15.000mm" style="fill:white;"/>
        <rect x="15.740mm" y="1.000mm" width="0.330mm" height="15.000mm" style="fill:black;"/>
        <rect x="16.070mm" y="1.000mm" width="0.330mm" height="15.000mm" style="fill:white;"/>
        <rect x="16.400mm" y="1.000mm" width="0.330mm" height="15.000mm" style="fill:black;"/>
        <rect x="16.730mm" y="1.000mm" width="0.990mm" height="15.000mm" style="fill:white;"/>
        <rect x="17.720mm" y="1.000mm" width="0.330mm" height="15.000mm" style="fill:black;"/>
        <rect x="18.050mm" y="1.000mm" width="0.660mm" height="15.000mm" style="fill:white;"/>
        <rect x="18.710mm" y="1.000mm" width="0.330mm" height="15.000mm" style="fill:black;"/>
        <rect x="19.040mm" y="1.000mm" width="0.990mm" height="15.000mm" style="fill:white;"/>
        <rect x="20.030mm" y="1.000mm" width="0.330mm" height="15.000mm" style="fill:black;"/>
        <rect x="20.360mm" y="1.000mm" width="0.330mm" height="15.000mm" style="fill:white;"/>
        <rect x="20.690mm" y="1.000mm" width="0.660mm" height="15.000mm" style="fill:black;"/>
        <rect x="21.350mm" y="1.000mm" width="0.330mm" height="15.000mm" style="fill:white;"/>
        <rect x="21.680mm" y="1.000mm" width="0.330mm" height="15.000mm" style="fill:black;"/>
        <rect x="22.010mm" y="1.000mm" width="0.330mm" height="15.000mm" style="fill:white;"/>
        <rect x="22.340mm" y="1.000mm" width="0.330mm" height="15.000mm" style="fill:black;"/>
        <rect x="22.670mm" y="1.000mm" width="0.330mm" height="15.000mm" style="fill:white;"/>
        <rect x="23.000mm" y="1.000mm" width="0.990mm" height="15.000mm" style="fill:black;"/>
        <rect x="23.990mm" y="1.000mm" width="0.660mm" height="15.000mm" style="fill:white;"/>
        <rect x="24.650mm" y="1.000mm" width="0.330mm" height="15.000mm" style="fill:black;"/>
        <rect x="24.980mm" y="1.000mm" width="0.330mm" height="15.000mm" style="fill:white;"/>
        <rect x="25.310mm" y="1.000mm" width="0.330mm" height="15.000mm" style="fill:black;"/>
        <rect x="25.640mm" y="1.000mm" width="0.330mm" height="15.000mm" style="fill:white;"/>
        <rect x="25.970mm" y="1.000mm" width="0.990mm" height="15.000mm" style="fill:black;"/>
        <rect x="26.960mm" y="1.000mm" width="0.660mm" height="15.000mm" style="fill:white;"/>
        <rect x="27.620mm" y="1.000mm" width="0.990mm" height="15.000mm" style="fill:black;"/>
        <rect x="28.610mm" y="1.000mm" width="0.660mm" height="15.000mm" style="fill:white;"/>
        <rect x="29.270mm" y="1.000mm" width="0.330mm" height="15.000mm" style="fill:black;"/>
        <rect x="29.600mm" y="1.000mm" width="0.330mm" height="15.000mm" style="fill:white;"/>
        <rect x="29.930mm" y="1.000mm" width="0.990mm" height="15.000mm" style="fill:black;"/>
        <rect x="30.920mm" y="1.000mm" width="0.330mm" height="15.000mm" style="fill:white;"/>
        <rect x="31.250mm" y="1.000mm" width="0.330mm" height="15.000mm" style="fill:black;"/>
        <rect x="31.580mm" y="1.000mm" width="0.660mm" height="15.000mm" style="fill:white;"/>
        <rect x="32.240mm" y="1.000mm" width="0.990mm" height="15.000mm" style="fill:black;"/>
        <rect x="33.230mm" y="1.000mm" width="0.330mm" height="15.000mm" style="fill:white;"/>
        <rect x="33.560mm" y="1.000mm" width="0.330mm" height="15.000mm" style="fill:black;"/>
        <rect x="33.890mm" y="1.000mm" width="0.660mm" height="15.000mm" style="fill:white;"/>
        <rect x="34.550mm" y="1.000mm" width="0.330mm" height="15.000mm" style="fill:black;"/>
        <rect x="34.880mm" y="1.000mm" width="0.330mm" height="15.000mm" style="fill:white;"/>
        <rect x="35.210mm" y="1.000mm" width="0.330mm" height="15.000mm" style="fill:black;"/>
        <rect x="35.540mm" y="1.000mm" width="1.320mm" height="15.000mm" style="fill:white;"/>
        <rect x="36.860mm" y="1.000mm" width="0.330mm" height="15.000mm" style="fill:black;"/>
        <rect x="37.190mm" y="1.000mm" width="0.330mm" height="15.000mm" style="fill:white;"/>
        <rect x="37.520mm" y="1.000mm" width="0.330mm" height="15.000mm" style="fill:black;"/>
        <text x="22.175mm" y="21.000mm" style="fill:black;font-size:10pt;text-anchor:middle;">8801689040996</text>
    </g>
</svg>
